# xmcd
# Track frame offsets:
# 150
# 18657
# 34491
# 54866
# 73656
# 93251
# 111151
# 133422
# 149107
# 168598
# 188134
# 207053
# 227701
#
# Disc length: 3281 seconds
# Revision: 0
# Processed by: cddbd v1.5.2PL0 Copyright (c) Steve Scherf et al.
# Submitted via: VisiTrax 2.11.3.279 - For more info visit www.synapsa.com
#
DISCID=c30ccf0d
DTITLE=Danny O'Keefe - Light Leaves the West
DYEAR=2014
DGENRE=Blues
TTITLE0=You Don't Have to Be Right
TTITLE1=Hardball
TTITLE2=Ultramarine
TTITLE3=Tooth and Nail
TTITLE4=The Ice Cream Changes
TTITLE5=Blue Desire
TTITLE6=Help Me Up
TTITLE7=Eddie Hinton
TTITLE8=The End of the Game
TTITLE9=More Than You Can Bear
TTITLE10=Soul Provider
TTITLE11=Weathered
TTITLE12=Appomattox
EXTD=
EXTT0=
EXTT1=
EXTT2=
EXTT3=
EXTT4=
EXTT5=
EXTT6=
EXTT7=
EXTT8=
EXTT9=
EXTT10=
EXTT11=
EXTT12=
PLAYORDER=
